<?xml version="1.0" encoding="utf-8" ?>
<svg baseProfile="full" height="800px" version="1.1" width="800px" xmlns="http://www.w3.org/2000/svg" xmlns:ev="http://www.w3.org/2001/xml-events" xmlns:xlink="http://www.w3.org/1999/xlink"><defs /><circle cx="400" cy="400" fill="lightblue" r="20" stroke="black" stroke-width="1" /><text fill="black" font-size="12px" x="425" y="405">Earth_Hub</text><circle cx="300" cy="200" fill="lightblue" r="20" stroke="black" stroke-width="1" /><text fill="black" font-size="12px" x="325" y="205">Ceres</text><circle cx="200" cy="400" fill="lightblue" r="20" stroke="black" stroke-width="1" /><text fill="black" font-size="12px" x="225" y="405">Pluto</text><circle cx="300" cy="600" fill="lightblue" r="20" stroke="black" stroke-width="1" /><text fill="black" font-size="12px" x="325" y="605">Eris</text><circle cx="500" cy="600" fill="lightblue" r="20" stroke="black" stroke-width="1" /><text fill="black" font-size="12px" x="525" y="605">Makemake</text><circle cx="600" cy="400" fill="lightblue" r="20" stroke="black" stroke-width="1" /><text fill="black" font-size="12px" x="625" y="405">Haumea</text><circle cx="550" cy="150" fill="lightblue" r="20" stroke="black" stroke-width="1" /><text fill="black" font-size="12px" x="575" y="155">TRAPPIST_1e</text><circle cx="650" cy="250" fill="lightblue" r="20" stroke="black" stroke-width="1" /><text fill="black" font-size="12px" x="675" y="255">Kepler_442b</text><circle cx="700" cy="400" fill="lightblue" r="20" stroke="black" stroke-width="1" /><text fill="black" font-size="12px" x="725" y="405">Proxima_b</text><circle cx="650" cy="550" fill="lightblue" r="20" stroke="black" stroke-width="1" /><text fill="black" font-size="12px" x="675" y="555">Gliese_667Cc</text><circle cx="400" cy="150" fill="lightblue" r="20" stroke="black" stroke-width="1" /><text fill="black" font-size="12px" x="425" y="155">AI_Grid</text><circle cx="400" cy="650" fill="lightblue" r="20" stroke="black" stroke-width="1" /><text fill="black" font-size="12px" x="425" y="655">Governance</text><line opacity="0.6" stroke="gray" stroke-width="2" x1="300" x2="400" y1="200" y2="400" /><line opacity="0.6" stroke="gray" stroke-width="2" x1="200" x2="400" y1="400" y2="400" /><line opacity="0.6" stroke="gray" stroke-width="2" x1="300" x2="400" y1="600" y2="150" /><line opacity="0.6" stroke="gray" stroke-width="2" x1="500" x2="400" y1="600" y2="150" /><line opacity="0.6" stroke="gray" stroke-width="2" x1="600" x2="400" y1="400" y2="150" /><line opacity="0.6" stroke="gray" stroke-width="2" x1="550" x2="400" y1="150" y2="150" /><line opacity="0.6" stroke="gray" stroke-width="2" x1="700" x2="400" y1="400" y2="650" /><line opacity="0.6" stroke="gray" stroke-width="2" x1="650" x2="400" y1="250" y2="400" /><line opacity="0.6" stroke="gray" stroke-width="2" x1="650" x2="400" y1="550" y2="150" /><line opacity="0.6" stroke="gray" stroke-width="2" x1="400" x2="400" y1="150" y2="400" /><line opacity="0.6" stroke="gray" stroke-width="2" x1="400" x2="400" y1="150" y2="650" /><line opacity="0.6" stroke="gray" stroke-width="2" x1="400" x2="400" y1="650" y2="400" /></svg>